# xmcd
#
# Track frame offsets:
# 150
# 21859
# 29030
# 41534
# 57829
# 73749
# 89669
# 103678
# 118018
# 133488
# 147643
# 163828
# 181512
# 197054
# 211891
# 227019
# 243694
# 260397
# 274892
# 289120
# 303203
#
# Disc length: 4242 seconds
#
#
# Revision: 0
# Processed by: cddbd v1.5.2PL0 Copyright (c) Steve Scherf et al.
# Submitted via: FreeRIP 2.951 
#
DISCID=46109015
DTITLE=joelma - calypso
DYEAR=2008
DGENRE=calypso!!
TTITLE0=acelerou
TTITLE1=abertura
TTITLE2=arrepiou
TTITLE3=sonho bonito
TTITLE4=um beijos seu
TTITLE5=feita pra te amar
TTITLE6=nessa balada
TTITLE7=balanço do norte
TTITLE8=parangolado
TTITLE9=louca sedução
TTITLE10=só pra você e eu
TTITLE11=muito além do prazer
TTITLE12=doce mel
TTITLE13=nós dois
TTITLE14=bye
TTITLE15=objeto de desejo
TTITLE16=eu te agradeço senhor
TTITLE17=cantando o amor
TTITLE18=merengue sensual
TTITLE19=a chave perdida
TTITLE20=por você
EXTD=
EXTT0=
EXTT1=
EXTT2=
EXTT3=
EXTT4=
EXTT5=
EXTT6=
EXTT7=
EXTT8=
EXTT9=
EXTT10=
EXTT11=
EXTT12=
EXTT13=
EXTT14=
EXTT15=
EXTT16=
EXTT17=
EXTT18=
EXTT19=
EXTT20=
PLAYORDER=
